<?xml version="1.0" standalone="no"?>
<!DOCTYPE svg PUBLIC "-//W3C//DTD SVG 20010904//EN"
 "http://www.w3.org/TR/2001/REC-SVG-20010904/DTD/svg10.dtd">
<svg version="1.0" xmlns="http://www.w3.org/2000/svg"
 width="1024.000000pt" height="1024.000000pt" viewBox="0 0 1024.000000 1024.000000"
 preserveAspectRatio="xMidYMid meet">

<g transform="translate(0.000000,1024.000000) scale(0.100000,-0.100000)"
fill="#000000" stroke="none">
<path d="M4640 9423 c-477 -48 -833 -178 -1264 -463 -367 -242 -495 -300 -729
-329 -86 -10 -107 -22 -107 -57 0 -41 95 -89 252 -128 l88 -21 -77 -60 c-142
-111 -285 -293 -397 -506 -101 -190 -146 -365 -149 -579 -2 -116 8 -150 47
-150 18 0 40 24 101 108 42 59 75 98 71 87 -24 -82 -55 -351 -56 -485 0 -171
47 -359 120 -473 35 -56 54 -66 80 -42 23 21 21 33 -26 155 -48 128 -71 259
-79 460 -3 82 1 133 20 235 13 72 26 146 29 165 10 64 43 164 76 231 35 70 35
99 1 99 -27 0 -114 -105 -230 -277 l-69 -102 5 72 c7 107 38 227 89 346 59
136 81 175 168 291 98 132 199 235 349 357 70 58 127 109 127 113 0 19 -45 39
-77 34 -42 -7 -207 12 -255 29 -48 17 -58 27 -26 27 84 0 422 137 603 245 330
196 413 243 522 296 327 160 587 223 928 223 230 0 368 -15 584 -66 206 -47
413 -122 606 -217 181 -90 253 -138 343 -228 99 -100 112 -98 130 17 13 90 12
261 -3 295 -13 31 64 -64 85 -104 31 -61 60 -169 70 -265 6 -50 15 -95 19 -99
10 -10 51 9 51 22 0 4 34 16 75 26 58 13 102 16 183 13 115 -6 177 -23 247
-71 l40 -27 -177 0 c-150 0 -179 -2 -193 -16 -21 -21 -8 -34 57 -58 89 -33
189 -108 300 -227 59 -63 126 -139 147 -169 56 -77 160 -251 204 -340 38 -78
111 -273 121 -325 3 -17 17 -75 32 -130 19 -74 27 -135 31 -235 3 -84 2 -131
-4 -125 -5 6 -27 33 -48 60 -88 114 -136 149 -151 111 -3 -8 4 -63 17 -122 37
-184 21 -346 -63 -618 -22 -72 -49 -152 -60 -179 -19 -44 -23 -47 -54 -45
l-34 2 -1 56 c-1 76 -11 105 -34 105 -15 0 -22 -10 -29 -40 -47 -216 -101
-353 -202 -508 -37 -56 -70 -106 -74 -110 -4 -4 1 34 11 85 67 341 79 437 80
668 0 211 -9 258 -78 377 -38 66 -100 196 -181 378 -122 274 -161 368 -229
545 -41 107 -81 205 -89 218 -16 25 -42 29 -50 8 -7 -19 12 -122 43 -231 22
-78 61 -215 79 -280 3 -11 7 -31 10 -45 3 -14 12 -47 20 -75 l14 -50 -61 60
c-54 54 -164 192 -214 270 -21 33 -135 236 -135 240 0 2 -15 36 -34 77 -63
136 -86 189 -86 197 0 18 -42 61 -59 61 -13 0 -40 -36 -87 -112 -38 -62 -94
-147 -125 -188 -107 -141 -291 -297 -428 -362 l-71 -34 18 30 c33 56 189 400
210 461 33 99 46 174 32 190 -22 27 -47 -3 -116 -137 -93 -184 -139 -250 -246
-356 -133 -130 -297 -242 -437 -297 -70 -27 -70 -26 -1 65 52 69 139 247 179
365 45 135 82 282 75 299 -10 27 -41 18 -80 -24 -20 -21 -42 -36 -47 -33 -6 3
-7 1 -3 -5 10 -16 -324 -352 -434 -436 -159 -121 -400 -274 -400 -253 0 59 66
282 117 397 13 30 40 95 60 145 19 49 46 111 59 137 37 73 27 100 -26 72 -27
-14 -37 -26 -185 -220 -55 -72 -140 -180 -190 -240 -49 -60 -134 -173 -187
-253 -91 -134 -97 -142 -104 -116 -10 39 3 191 21 251 23 79 100 250 152 339
67 115 72 126 66 141 -10 26 -36 14 -86 -38 -54 -58 -192 -262 -252 -373 -21
-38 -70 -126 -108 -195 -97 -173 -207 -424 -224 -509 l-7 -36 -8 35 c-8 36 -4
223 7 340 8 85 -5 107 -40 67 -36 -40 -42 -73 -71 -397 -21 -242 -25 -327 -20
-470 3 -96 8 -188 11 -205 2 -16 11 -79 20 -140 14 -102 47 -301 61 -370 5
-28 5 -29 -9 -10 -46 63 -128 240 -172 370 -42 125 -54 150 -70 150 -11 0 -24
-10 -30 -22 -16 -38 -44 -28 -68 25 -20 43 -21 62 -20 207 1 88 4 194 5 235 3
69 1 75 -17 75 -69 0 -111 -399 -60 -567 l13 -45 -38 -30 c-190 -145 -241
-436 -130 -731 58 -155 108 -232 219 -342 158 -157 297 -228 483 -245 l75 -7
18 -52 c122 -342 386 -638 748 -836 l79 -43 -7 -116 c-8 -149 -30 -277 -62
-366 -14 -38 -26 -78 -26 -87 -1 -9 -3 -15 -5 -13 -3 2 -34 -23 -70 -56 -70
-64 -98 -77 -130 -60 -36 19 -61 12 -231 -63 -147 -65 -287 -121 -736 -293
-180 -68 -426 -191 -547 -272 -131 -87 -257 -205 -343 -319 -156 -208 -308
-539 -394 -857 -48 -180 -48 -178 -2 -208 l39 -26 17 72 c10 40 29 107 42 150
13 44 22 85 19 93 -3 8 -2 13 2 10 5 -3 18 25 29 62 38 121 208 471 284 587
152 229 383 392 849 597 141 63 389 167 500 211 l64 26 11 -42 c6 -23 17 -51
24 -62 11 -19 12 -18 8 8 -4 23 0 31 20 40 19 9 26 8 34 -4 13 -20 11 -35 -3
-21 -16 16 -28 15 -28 -3 0 -9 6 -12 15 -9 8 4 15 1 15 -5 0 -6 6 -8 13 -5 11
4 10 16 -7 63 -17 49 -23 57 -40 54 -24 -5 -9 3 149 78 61 29 112 54 115 56 3
2 13 -23 22 -56 25 -84 120 -206 232 -295 93 -75 321 -182 501 -236 173 -51
338 -72 574 -71 351 1 569 60 881 239 95 55 272 213 300 269 8 16 22 40 31 54
10 14 21 37 24 52 4 15 10 27 14 27 12 0 266 -111 275 -121 6 -6 4 -9 -7 -9
-9 0 -17 -1 -17 -3 0 -1 -4 -16 -9 -32 -8 -28 -7 -30 20 -30 31 0 38 9 14 19
-17 6 -21 36 -4 36 5 0 8 -4 4 -9 -3 -5 -1 -12 5 -16 10 -6 14 6 11 35 -1 9 1
11 6 5 4 -6 26 -15 48 -21 64 -18 618 -246 756 -311 308 -147 485 -273 627
-448 36 -44 69 -79 74 -77 5 1 7 -1 4 -6 -3 -5 16 -49 42 -98 83 -157 161
-328 207 -453 45 -122 115 -357 115 -386 0 -12 9 -9 40 11 46 30 46 28 9 174
-64 259 -208 592 -347 805 -84 129 -261 307 -387 390 -175 115 -501 265 -830
384 -209 75 -337 128 -514 212 -57 27 -124 54 -148 61 -40 10 -47 8 -74 -11
-26 -20 -31 -20 -56 -7 -16 8 -55 43 -89 77 -91 96 -131 219 -142 444 -10 192
-12 185 61 225 336 182 589 460 718 788 l38 97 92 8 c159 13 291 70 431 183
76 63 161 161 151 177 -3 5 -1 7 5 3 27 -17 135 199 167 334 21 89 28 252 14
334 -19 113 -106 259 -181 302 -14 8 -10 22 37 117 28 59 62 143 74 186 28
103 44 268 39 409 l-3 113 20 -28 c88 -123 127 -152 156 -117 21 26 18 339 -4
464 -90 498 -326 938 -631 1178 -39 30 -75 59 -81 65 -17 16 135 -1 204 -23
36 -11 71 -18 78 -16 30 12 14 64 -38 120 -81 89 -176 152 -270 180 -94 28
-308 17 -365 -19 -20 -13 -21 -11 -32 75 -6 49 -21 112 -33 142 -63 150 -239
320 -299 288 -26 -14 -26 -45 0 -118 14 -38 22 -97 27 -177 l6 -120 -62 60
c-139 134 -386 275 -636 362 -162 56 -439 116 -620 133 -103 9 -336 11 -415 3z
m1400 -1355 c0 -14 70 -185 117 -288 95 -206 254 -410 418 -535 92 -71 120
-72 119 -7 0 23 2 39 6 35 4 -4 47 -96 94 -203 48 -107 110 -241 139 -298 l52
-103 -2 -137 c-2 -145 -5 -201 -29 -482 -16 -192 -33 -300 -69 -460 -13 -58
-29 -139 -35 -180 -49 -329 -123 -585 -224 -775 -51 -96 -202 -298 -280 -374
-30 -30 -52 -59 -49 -64 3 -6 1 -7 -6 -3 -6 4 -33 -12 -64 -38 -67 -57 -333
-223 -434 -272 -114 -54 -278 -110 -395 -136 -88 -19 -134 -22 -318 -22 -197
0 -225 2 -330 26 -366 84 -703 267 -990 536 -37 34 -70 59 -75 55 -4 -5 -5 -3
-1 4 4 7 -23 51 -64 105 -78 103 -143 221 -194 355 -41 104 -57 165 -101 378
-19 88 -50 230 -70 315 -75 325 -114 688 -115 1053 l0 189 31 -26 c17 -14 37
-26 45 -26 21 0 40 51 68 182 29 137 61 234 134 398 57 131 131 274 138 267 3
-2 -3 -35 -12 -73 -19 -80 -15 -258 7 -312 11 -27 43 -52 54 -40 1 1 49 73
106 158 57 85 127 187 157 225 70 92 225 275 229 271 2 -1 -15 -50 -37 -109
-64 -169 -100 -357 -76 -396 11 -17 50 -4 146 47 232 124 572 390 713 558 33
40 63 71 65 69 12 -11 -93 -235 -173 -370 -25 -42 -42 -82 -38 -87 3 -6 1 -8
-4 -5 -16 10 -123 -154 -123 -187 0 -61 324 66 510 200 43 30 110 86 149 123
39 36 70 62 67 56 -2 -5 -22 -54 -45 -108 -25 -56 -41 -109 -39 -125 3 -24 7
-27 38 -24 19 1 71 20 115 41 187 89 377 226 477 344 80 93 178 250 178 284 0
8 5 11 10 8 6 -3 10 -11 10 -17z m1381 -2004 c31 -15 82 -72 104 -115 25 -47
55 -177 55 -234 0 -78 -27 -221 -57 -299 -56 -150 -205 -319 -358 -408 -100
-58 -161 -79 -249 -86 l-69 -5 7 28 c23 91 60 291 80 433 l23 162 49 43 c27
23 59 53 71 66 13 13 26 21 30 18 3 -4 8 -43 11 -87 3 -57 0 -93 -12 -130 -9
-28 -14 -56 -10 -62 4 -6 3 -8 -2 -5 -13 8 -118 -99 -110 -112 20 -31 111 20
154 85 55 84 78 247 47 339 -18 53 -15 62 31 81 38 16 52 12 110 -33 41 -31
54 -29 54 7 0 21 -11 42 -34 68 -32 34 -39 37 -89 37 l-54 0 22 50 c12 28 30
75 40 105 10 30 22 61 28 68 12 15 87 7 128 -14z m-4527 -64 c14 -44 34 -98
44 -119 l19 -39 -26 1 c-69 1 -84 -4 -118 -38 -28 -28 -34 -41 -31 -67 2 -18
8 -31 13 -28 6 3 9 9 7 13 -1 5 3 5 9 1 7 -4 17 0 23 8 27 36 78 47 133 27
l31 -10 -21 -52 c-54 -139 -6 -326 108 -413 23 -17 41 -24 55 -19 29 9 25 26
-14 64 -19 19 -44 55 -55 82 -26 60 -44 183 -34 233 l8 38 62 -74 61 -74 27
-175 c26 -172 44 -268 70 -383 l14 -59 -69 6 c-115 10 -281 99 -389 211 -24
25 -49 42 -54 39 -6 -3 -7 -1 -4 4 4 6 -14 42 -40 79 -95 141 -133 265 -134
430 0 94 20 203 47 255 23 45 85 110 119 125 17 7 49 13 71 14 l42 0 26 -80z
m-274 -690 c0 -5 -5 -10 -11 -10 -5 0 -7 5 -4 10 3 6 8 10 11 10 2 0 4 -4 4
-10z m4580 -320 c0 -5 -5 -10 -11 -10 -5 0 -7 5 -4 10 3 6 8 10 11 10 2 0 4
-4 4 -10z m-1311 -1262 c1 -62 3 -124 5 -138 14 -106 22 -146 48 -225 16 -49
41 -110 55 -134 50 -86 147 -173 211 -190 23 -6 22 -8 -28 -79 -102 -145 -318
-279 -570 -354 -139 -41 -263 -59 -450 -65 -262 -8 -452 17 -680 89 -231 74
-490 243 -551 360 -23 46 -24 48 0 48 53 0 179 116 225 207 36 72 77 208 90
298 17 121 27 240 23 261 -2 13 -3 24 -1 24 2 0 32 -17 67 -39 121 -74 363
-147 571 -172 199 -24 458 3 656 68 63 21 317 139 326 151 1 1 2 -49 3 -110z
m-1689 -322 c0 -3 -4 -8 -10 -11 -5 -3 -10 -1 -10 4 0 6 5 11 10 11 6 0 10 -2
10 -4z m-668 -470 c4 -6 8 -15 8 -21 0 -6 -3 -5 -8 1 -4 6 -20 19 -37 28 l-30
16 30 -7 c17 -3 33 -11 37 -17z m-23 -32 c-14 -17 -38 -7 -36 16 1 15 5 16 24
7 17 -8 20 -13 12 -23z"/>
<path d="M3895 6870 c-57 -12 -166 -54 -211 -83 -129 -81 -240 -237 -169 -237
8 0 52 20 98 45 111 60 203 93 317 115 154 30 262 34 355 14 110 -24 189 -25
193 -2 9 46 -148 131 -271 148 -90 12 -253 12 -312 0z"/>
<path d="M5850 6857 c-91 -28 -146 -56 -188 -95 -36 -34 -39 -44 -17 -62 13
-10 37 -8 134 14 136 30 214 32 354 11 146 -22 225 -48 391 -131 80 -40 91
-43 105 -30 13 13 13 19 1 42 -27 50 -150 162 -218 197 -110 58 -160 69 -332
73 -141 4 -162 2 -230 -19z"/>
<path d="M3985 6326 c-157 -50 -274 -193 -278 -339 -2 -55 0 -62 18 -62 14 0
24 14 40 60 28 79 47 114 82 149 32 33 110 71 167 81 l39 7 -31 -36 c-17 -20
-38 -49 -46 -64 -25 -48 -39 -149 -34 -241 6 -104 38 -174 101 -225 71 -57
189 -45 253 26 49 53 67 108 72 218 3 90 1 113 -18 163 -12 31 -33 71 -48 89
l-26 31 59 -31 c32 -17 62 -29 67 -26 17 11 7 52 -22 92 -36 50 -91 88 -156
108 -58 17 -184 17 -239 0z"/>
<path d="M4737 6333 c-3 -5 8 -40 24 -78 16 -39 38 -104 49 -145 48 -190 35
-287 -73 -540 -35 -82 -41 -105 -40 -167 0 -120 64 -218 178 -273 129 -63 127
17 -4 143 -45 43 -62 67 -67 95 -9 46 9 134 41 205 49 105 68 202 68 337 0
114 -3 133 -32 222 -40 117 -88 202 -118 206 -11 2 -23 -1 -26 -5z"/>
<path d="M5876 6316 c-89 -38 -155 -113 -156 -178 0 -16 32 -7 68 17 51 35 57
31 23 -15 -44 -62 -65 -153 -57 -251 8 -102 35 -167 90 -217 61 -56 102 -68
170 -48 126 37 192 175 175 361 -8 84 -35 150 -84 203 l-36 40 58 -17 c32 -10
72 -25 89 -34 53 -27 112 -105 137 -182 18 -54 28 -70 43 -70 17 0 19 7 18 65
-1 127 -93 258 -222 318 -47 22 -74 27 -157 29 -88 3 -107 1 -159 -21z"/>
<path d="M5590 4715 c-141 -64 -325 -95 -565 -95 -223 0 -397 31 -502 91 -77
43 -112 37 -99 -15 8 -31 137 -99 228 -120 163 -38 510 -43 713 -11 138 22
282 71 327 112 31 28 18 74 -20 73 -4 0 -41 -16 -82 -35z"/>
<path d="M6665 2899 c-9 -17 -14 -33 -11 -36 3 -3 10 7 16 22 6 15 13 32 16
36 3 5 3 9 0 9 -3 0 -13 -14 -21 -31z"/>
<path d="M6620 2849 c0 -17 -3 -19 -13 -10 -17 13 -37 -1 -62 -44 l-17 -30 21
24 c15 17 25 21 32 14 7 -7 0 -18 -23 -34 -18 -13 -34 -23 -36 -21 -2 2 -17
-16 -34 -40 -17 -24 -57 -70 -90 -104 -41 -43 -57 -65 -52 -77 3 -9 10 -17 15
-17 6 0 4 10 -2 23 -9 17 -9 19 0 11 18 -16 24 -65 8 -58 -8 3 -13 -4 -14 -17
-2 -19 6 -14 49 27 72 68 93 95 95 120 1 12 -5 25 -14 28 -12 5 -14 1 -9 -19
5 -18 2 -25 -9 -25 -8 0 -15 -9 -15 -19 0 -25 -16 -36 -24 -15 -4 9 -2 13 5 8
8 -4 8 -1 0 14 -15 27 -14 30 7 28 10 0 17 6 17 16 0 10 6 23 13 30 9 9 12 9
12 -2 0 -10 4 -10 18 3 12 11 22 13 35 6 13 -8 19 -6 24 8 3 10 15 28 26 41
16 17 18 25 9 34 -17 17 -15 33 2 19 10 -8 16 -9 21 -1 3 5 -1 10 -9 10 -14 0
-14 3 -4 20 11 17 14 18 18 4 5 -12 8 -10 18 10 12 26 7 56 -9 56 -5 0 -9 -10
-9 -21z m-20 -24 c0 -8 -4 -15 -10 -15 -5 0 -7 7 -4 15 4 8 8 15 10 15 2 0 4
-7 4 -15z m-22 -88 c2 -9 -2 -17 -8 -17 -7 0 -9 7 -6 16 5 14 4 15 -9 4 -8 -7
-15 -8 -15 -3 0 28 33 27 38 0z m-52 -12 c-3 -10 1 -15 11 -15 25 0 0 -23 -29
-27 -20 -2 -21 -2 -5 8 9 6 15 14 12 20 -4 5 -3 14 0 19 10 15 18 12 11 -5z
m-111 -135 c-3 -5 -11 -10 -16 -10 -6 0 -7 5 -4 10 3 6 11 10 16 10 6 0 7 -4
4 -10z m-16 -37 c-6 -7 -15 -10 -20 -7 -13 8 -3 21 15 21 12 0 13 -4 5 -14z
m15 -28 c-4 -8 -11 -12 -16 -9 -6 4 -5 10 3 15 19 12 19 11 13 -6z"/>
<path d="M3511 2827 c-1 -28 36 -94 53 -94 15 0 15 2 0 18 -8 9 -12 19 -7 21
4 3 3 3 -4 2 -7 -2 -15 1 -18 7 -4 5 -1 8 6 7 7 -2 13 3 14 11 0 8 6 16 14 19
10 3 12 0 8 -12 -9 -22 12 -66 28 -60 7 3 16 0 21 -7 5 -9 2 -10 -10 -6 -10 4
-19 1 -22 -8 -3 -7 -12 -11 -21 -8 -13 5 -13 2 1 -23 28 -53 37 -62 34 -35 -2
18 2 25 19 27 24 4 38 -22 27 -50 -5 -14 -2 -16 22 -13 16 2 38 0 49 -6 11 -6
3 9 -20 34 -22 24 -51 61 -63 81 -15 25 -28 35 -38 31 -12 -4 -14 0 -9 18 8
33 -14 60 -42 53 -13 -4 -20 -11 -16 -20 3 -8 2 -14 -1 -14 -4 0 -11 10 -16
23 -7 17 -9 18 -9 4z m129 -121 c0 -3 -4 -8 -10 -11 -5 -3 -10 -1 -10 4 0 6 5
11 10 11 6 0 10 -2 10 -4z m60 -61 c0 -2 -7 -5 -15 -9 -9 -3 -15 0 -15 9 0 9
6 12 15 9 8 -4 15 -7 15 -9z"/>
<path d="M6500 2650 c0 -5 5 -10 11 -10 8 0 7 -6 -2 -17 -11 -15 -10 -14 9 1
27 24 28 36 2 36 -11 0 -20 -4 -20 -10z"/>
<path d="M3620 2635 c0 -18 87 -111 96 -102 5 4 3 12 -4 16 -17 11 -22 44 -8
54 6 4 -2 6 -19 5 -20 -2 -36 4 -47 17 -10 11 -17 15 -18 10z m65 -45 c3 -5 2
-10 -4 -10 -5 0 -13 5 -16 10 -3 6 -2 10 4 10 5 0 13 -4 16 -10z"/>
<path d="M3716 2585 c-2 -7 0 -18 5 -26 5 -8 6 -21 4 -30 -6 -19 51 -73 67
-63 7 4 8 3 4 -5 -4 -6 0 -14 11 -18 10 -4 20 -9 23 -13 10 -12 77 -60 84 -60
4 0 4 5 0 12 -4 7 -3 8 5 4 6 -4 9 -11 6 -16 -7 -11 135 -89 253 -139 73 -31
92 -36 105 -26 9 7 14 15 10 19 -4 4 1 4 12 0 11 -5 14 -9 7 -12 -7 -2 -10 -8
-7 -13 4 -5 -2 -6 -12 -2 -13 4 -15 3 -8 -5 6 -6 66 -27 134 -46 156 -45 191
-52 191 -37 0 6 -6 11 -14 11 -8 0 -16 7 -20 15 -3 9 0 15 9 15 8 0 15 -4 15
-9 0 -4 12 -7 28 -5 23 3 24 2 5 -4 -17 -5 -20 -11 -13 -22 5 -8 10 -10 10 -5
0 6 4 5 8 -2 4 -6 42 -15 85 -20 63 -8 77 -7 77 4 0 8 -4 11 -10 8 -5 -3 -10
-2 -10 4 0 5 9 9 20 8 12 -1 20 -8 20 -19 0 -15 9 -18 51 -18 42 0 52 3 56 20
4 14 13 20 32 19 21 -1 22 -2 6 -6 -19 -5 -34 -20 -35 -34 0 -3 23 -6 52 -8
43 -2 50 0 40 12 -7 8 -11 16 -9 18 1 2 -2 1 -8 -3 -16 -14 -28 -8 -15 7 16
19 64 19 80 0 7 -9 10 -18 6 -22 -3 -3 -6 -1 -6 6 0 8 -7 11 -15 7 -8 -3 -15
0 -15 6 0 6 -2 9 -5 6 -3 -3 -2 -13 1 -22 5 -14 9 -15 15 -4 7 10 9 10 9 1 0
-9 16 -13 45 -13 25 0 45 5 45 11 0 6 -12 8 -29 6 -21 -4 -31 0 -36 10 -8 23
5 31 16 11 5 -10 16 -15 23 -12 8 3 25 -1 38 -8 34 -20 61 -16 75 12 13 26 52
35 65 15 13 -18 9 -25 -17 -25 -18 0 -23 4 -19 15 4 8 2 15 -4 15 -5 0 -12 -9
-15 -20 -5 -18 0 -20 48 -20 51 0 79 13 53 23 -8 4 -7 6 4 6 9 1 18 -4 20 -11
3 -9 24 -9 90 1 76 11 85 15 81 32 -3 10 -10 19 -15 19 -5 0 -7 -4 -3 -9 3 -6
-3 -15 -14 -20 -25 -14 -31 -14 -31 -1 0 6 7 10 15 10 8 0 15 6 15 14 0 8 8
17 18 19 10 3 6 5 -11 6 -16 0 -26 -3 -23 -7 3 -5 -18 -8 -47 -8 -29 1 -106
-5 -172 -13 -78 -9 -168 -12 -258 -8 -118 5 -138 4 -133 -9 3 -8 1 -14 -5 -14
-5 0 -12 7 -15 15 -4 8 -11 15 -17 15 -7 0 -7 -4 1 -12 16 -16 15 -25 -3 -25
-8 0 -12 3 -10 7 2 4 -1 14 -8 23 -14 18 -137 36 -137 20 0 -6 11 -9 25 -8 14
2 25 -1 25 -7 0 -5 -14 -8 -30 -6 -19 2 -34 -3 -40 -12 -5 -8 -13 -11 -17 -6
-4 5 -3 11 4 13 7 2 9 12 6 21 -4 15 -3 15 6 2 9 -13 11 -13 11 1 0 20 -42 32
-80 24 -19 -4 -31 -2 -37 7 -4 8 -42 24 -83 37 -41 12 -83 25 -92 28 -10 3
-18 0 -18 -6 0 -6 9 -11 20 -11 11 0 23 -7 26 -15 4 -8 11 -12 17 -8 5 3 8 2
5 -3 -3 -5 0 -15 8 -22 8 -7 14 -9 14 -3 0 5 7 12 16 15 8 3 13 2 10 -3 -3 -5
2 -15 11 -22 15 -12 16 -12 10 4 -4 11 -1 17 9 17 8 0 13 -4 9 -9 -3 -5 -1
-12 5 -16 5 -3 10 0 10 7 0 9 3 9 10 -2 5 -8 10 -19 10 -25 0 -5 -4 -4 -9 4
-6 10 -10 10 -16 2 -5 -9 -13 -8 -30 3 -16 10 -35 14 -54 10 -27 -6 -31 -4
-31 15 0 19 -3 20 -22 11 -21 -10 -22 -10 -5 3 13 11 15 16 5 19 -7 3 -19 -2
-26 -11 -12 -14 -13 -14 -8 1 3 10 1 20 -4 23 -5 3 -7 12 -4 19 3 8 -12 19
-43 31 -157 59 -419 211 -533 311 -27 23 -56 28 -64 9z m78 -32 c28 -20 31
-29 14 -39 -6 -4 -8 -3 -5 3 7 11 -31 26 -44 17 -5 -2 -6 -11 -3 -19 4 -8 10
-12 15 -9 5 3 6 11 3 17 -4 8 -2 7 7 -1 12 -11 12 -14 -1 -22 -17 -11 -44 16
-36 37 3 7 -2 19 -11 28 -14 14 -13 15 11 11 14 -2 37 -13 50 -23z m76 -64 c0
-6 -5 -7 -11 -3 -8 5 -8 1 0 -14 10 -18 8 -20 -14 -17 -14 1 -29 6 -33 10 -4
4 4 4 18 1 23 -7 24 -6 7 8 -11 8 -26 12 -35 9 -15 -4 -15 -3 -2 6 8 6 23 8
33 5 9 -3 17 0 17 6 0 6 5 8 10 5 6 -3 10 -11 10 -16z m20 -26 c0 -12 3 -14 8
-6 5 8 12 7 27 -4 14 -10 15 -14 5 -13 -28 4 -51 0 -46 -8 2 -4 -4 -8 -15 -8
-10 0 -19 4 -19 8 0 4 7 8 16 8 11 0 14 6 9 20 -4 11 -2 20 4 20 6 0 11 -8 11
-17z m70 -44 c5 8 14 6 31 -8 21 -17 21 -20 6 -21 -10 0 -15 4 -12 10 3 5 -2
9 -12 8 -10 0 -27 0 -38 1 -17 1 -17 3 -5 11 10 6 16 6 19 -1 2 -8 6 -8 11 0z
m-6 -40 c-3 -6 0 -15 7 -20 9 -6 10 -9 2 -9 -15 0 -26 17 -18 30 3 6 8 10 11
10 3 0 2 -5 -2 -11z m79 -28 c-12 -10 -19 -22 -15 -26 4 -4 -3 -2 -15 4 -27
14 -31 23 -5 14 15 -6 16 -5 2 13 -8 10 -11 16 -6 12 5 -4 15 0 24 8 11 11 18
12 26 4 8 -8 5 -16 -11 -29z m46 -12 c-13 -24 -14 -24 -14 5 0 14 5 22 12 19
9 -4 10 -10 2 -24z m51 -4 c11 -13 10 -14 -5 -9 -13 5 -16 4 -11 -5 4 -6 2
-19 -6 -28 -11 -15 -11 -16 4 -10 10 3 20 2 23 -3 4 -6 11 -10 17 -10 7 0 6 6
-2 15 -9 10 -9 15 -1 15 6 0 11 -4 11 -10 0 -17 18 -11 23 8 4 13 5 11 6 -5 1
-23 -10 -28 -54 -24 -40 3 -47 9 -34 32 10 19 9 21 -5 16 -13 -5 -14 -3 -3 13
14 24 21 25 37 5z m-84 -22 c-10 -10 -19 5 -10 18 6 11 8 11 12 0 2 -7 1 -15
-2 -18z m211 -39 c26 -14 40 -23 31 -20 -10 3 -20 1 -23 -4 -10 -16 -23 -11
-21 6 0 9 -5 19 -12 21 -8 3 -10 -1 -5 -13 4 -11 3 -15 -4 -11 -10 6 -25 47
-18 47 2 0 25 -12 52 -26z m12 -49 c-10 -10 -22 -13 -35 -8 -17 6 -17 8 6 14
40 11 45 10 29 -6z m73 -31 c-6 -11 -11 -13 -16 -5 -4 6 -3 11 2 11 6 0 8 10
5 23 -4 19 -3 20 7 5 7 -12 8 -24 2 -34z m1108 -79 c0 -20 -13 -25 -30 -13
-12 8 -12 9 3 4 9 -3 17 -1 17 4 0 6 -5 10 -11 10 -5 0 -7 5 -4 10 8 13 25 3
25 -15z m-663 9 c-3 -3 -12 -4 -19 -1 -8 3 -5 6 6 6 11 1 17 -2 13 -5z m599
-3 c-4 -5 -1 -12 4 -14 6 -3 5 -4 -2 -3 -15 3 -23 26 -8 26 6 0 9 -4 6 -9z
m-51 -11 c-3 -5 -10 -10 -16 -10 -5 0 -9 5 -9 10 0 6 7 10 16 10 8 0 12 -4 9
-10z m-595 -8 c0 -5 -7 -9 -15 -9 -8 0 -15 4 -15 9 0 4 7 8 15 8 8 0 15 -4 15
-8z m30 -2 c0 -5 -2 -10 -4 -10 -3 0 -8 5 -11 10 -3 6 -1 10 4 10 6 0 11 -4
11 -10z m367 4 c-3 -3 -12 -4 -19 -1 -8 3 -5 6 6 6 11 1 17 -2 13 -5z m33 -6
c0 -9 4 -8 10 2 8 12 10 11 10 -7 0 -28 -2 -28 -25 -3 -10 11 -13 20 -7 20 7
0 12 -6 12 -12z m48 -2 c-7 -8 -15 -12 -17 -11 -5 6 10 25 20 25 5 0 4 -6 -3
-14z m-301 -12 c-3 -3 -12 -4 -19 -1 -8 3 -5 6 6 6 11 1 17 -2 13 -5z"/>
<path d="M4020 2365 c-11 -13 -10 -14 4 -9 9 3 16 10 16 15 0 13 -6 11 -20 -6z"/>
<path d="M6320 2526 c0 -9 -6 -15 -12 -13 -7 1 -12 -4 -10 -12 2 -8 -3 -11
-12 -8 -17 7 -21 3 -29 -34 -5 -19 -3 -26 8 -26 11 0 13 8 9 30 -4 27 -3 29
11 17 9 -7 21 -23 27 -34 11 -20 10 -20 -7 -6 -17 14 -18 13 -12 -4 7 -17 4
-18 -27 -13 -19 3 -39 0 -47 -6 -11 -10 -11 -9 -1 4 6 9 9 19 5 22 -3 4 2 9
11 13 9 3 16 10 16 15 0 4 -23 -6 -50 -23 -52 -32 -64 -53 -13 -23 l28 17 -23
-20 c-13 -12 -18 -23 -12 -27 7 -4 7 -12 0 -25 -17 -31 -13 -42 10 -30 11 6
18 15 15 20 -3 6 1 7 10 4 22 -9 131 74 116 89 -7 7 -7 14 0 24 8 9 8 13 0 13
-6 0 -11 -5 -11 -11 0 -5 -5 -7 -12 -3 -8 5 -5 11 10 17 23 11 29 31 12 42 -5
3 -10 -1 -10 -9z m-56 -128 c-3 -5 -9 -6 -14 -3 -4 3 -11 -1 -13 -7 -4 -8 -6
-7 -6 4 -1 11 6 16 18 15 11 0 17 -5 15 -9z m-44 -2 c0 -3 -4 -8 -10 -11 -5
-3 -10 -1 -10 4 0 6 5 11 10 11 6 0 10 -2 10 -4z"/>
<path d="M6100 2387 c-19 -13 -63 -39 -97 -58 -35 -18 -63 -37 -63 -41 0 -4
-6 -5 -13 -2 -12 4 -56 -33 -49 -42 1 -2 2 -8 2 -14 0 -13 -37 -13 -45 1 -4 6
-1 10 6 8 26 -3 36 1 36 16 0 8 -1 15 -1 15 -15 -6 -116 -43 -128 -47 -10 -3
-18 -10 -18 -15 0 -5 -3 -7 -8 -5 -4 3 -30 -1 -57 -8 -28 -8 -48 -14 -45 -15
20 -6 50 -5 50 2 0 17 48 7 62 -14 l15 -22 94 33 c97 34 230 92 285 124 27 15
31 23 29 52 -3 28 0 33 13 29 13 -5 13 -2 -2 10 -25 20 -25 20 -66 -7z m4 -23
c-18 -15 -18 -15 0 -10 15 5 17 2 13 -14 -4 -17 -2 -20 16 -15 17 5 19 4 7 -4
-8 -6 -23 -8 -34 -5 -11 4 -16 2 -12 -4 3 -5 -22 -24 -55 -41 -62 -31 -89 -38
-89 -22 0 5 -7 8 -16 7 -9 0 -18 5 -20 12 -1 7 0 8 3 2 3 -6 16 -2 33 10 34
24 48 26 26 4 -15 -14 -21 -34 -12 -34 2 0 12 3 21 6 13 6 14 9 3 16 -9 6 -6
7 10 3 13 -4 22 -2 22 5 0 6 5 8 12 4 7 -4 8 -3 4 4 -4 7 -13 12 -21 12 -8 0
-17 4 -20 10 -4 6 1 7 11 3 12 -4 15 -3 10 5 -4 7 -1 12 9 12 9 0 14 -4 11 -9
-3 -5 1 -12 10 -15 10 -4 13 -2 8 7 -5 9 -4 9 7 0 20 -20 31 -15 17 6 -7 11
-16 17 -20 15 -4 -3 -8 -2 -8 3 0 9 49 41 64 42 6 1 1 -6 -10 -15z m-259 -162
c-2 -3 -12 1 -21 9 -16 13 -17 12 -11 -9 4 -18 2 -22 -9 -18 -9 3 -22 -1 -30
-9 -23 -22 -34 -18 -34 11 0 21 4 25 19 21 13 -3 18 -1 14 8 -7 19 38 24 60 6
9 -8 15 -16 12 -19z m75 24 c0 -3 -4 -8 -10 -11 -5 -3 -10 -1 -10 4 0 6 5 11
10 11 6 0 10 -2 10 -4z"/>
<path d="M6088 2333 c7 -3 16 -2 19 1 4 3 -2 6 -13 5 -11 0 -14 -3 -6 -6z"/>
<path d="M5572 2171 c-11 -7 -11 -9 2 -14 9 -4 16 -2 16 4 0 6 7 3 16 -6 9 -9
19 -14 21 -11 6 6 -22 36 -34 36 -4 0 -14 -4 -21 -9z"/>
<path d="M5702 2160 c7 -11 17 -20 22 -20 5 0 1 9 -9 20 -10 11 -20 20 -22 20
-2 0 2 -9 9 -20z"/>
<path d="M5644 2146 c-4 -11 -13 -15 -25 -11 -20 7 -59 -10 -59 -26 0 -6 6 -6
18 -1 9 6 41 13 70 17 28 4 52 11 52 17 0 6 -6 8 -14 5 -7 -3 -18 -1 -24 5 -8
8 -13 7 -18 -6z"/>
<path d="M5550 2140 c0 -5 4 -10 9 -10 6 0 13 5 16 10 3 6 -1 10 -9 10 -9 0
-16 -4 -16 -10z"/>
<path d="M2382 1892 c-15 -10 -10 -58 12 -121 9 -24 16 -54 16 -67 0 -17 4
-22 15 -18 11 5 12 10 4 26 -6 11 -8 22 -6 25 3 2 8 -4 11 -15 5 -14 13 -19
29 -15 16 4 14 0 -10 -16 -18 -11 -33 -27 -33 -35 0 -30 13 -75 20 -71 4 3 4
22 0 42 -5 21 -7 39 -4 42 2 2 4 -2 4 -10 0 -8 6 -4 16 9 15 22 34 22 34 0 0
-5 -7 -7 -16 -4 -11 4 -15 2 -11 -8 3 -8 1 -17 -6 -19 -9 -3 -9 -9 0 -25 10
-17 10 -24 -2 -36 -21 -21 -18 -36 8 -37 16 -1 18 -2 5 -6 -20 -5 -21 -14 -12
-62 4 -17 11 -28 17 -24 6 4 7 1 2 -8 -11 -17 -7 -79 5 -94 6 -7 7 -14 5 -17
-3 -3 -1 -34 4 -69 5 -35 13 -100 16 -144 4 -44 9 -93 11 -110 2 -16 4 -93 4
-171 l1 -140 62 -22 c62 -22 62 -22 37 -1 -19 16 -20 19 -6 15 17 -6 18 -1 12
91 -10 140 -13 150 -44 156 -17 3 -30 0 -38 -11 -10 -14 -12 -8 -11 36 1 28 5
52 9 52 5 0 7 -3 7 -7 -3 -21 3 -33 17 -33 10 0 14 -6 11 -14 -4 -10 1 -14 15
-13 19 1 20 6 14 72 -7 73 -11 100 -27 200 -6 33 -12 78 -15 100 -2 22 -11 74
-18 115 -17 90 -29 153 -31 160 0 3 -4 23 -8 45 -15 79 -70 240 -86 252 -19
15 -22 15 -39 5z m49 -39 c12 -16 12 -17 -1 -7 -8 6 -22 14 -30 17 -13 5 -12
6 1 6 9 1 23 -7 30 -16z m-9 -82 c-4 -11 -7 -10 -13 5 -12 29 -10 36 5 22 7
-7 11 -19 8 -27z m21 -6 c-3 -9 -8 -14 -10 -11 -3 3 -2 9 2 15 9 16 15 13 8
-4z m21 -30 c-7 -16 -24 -21 -24 -6 0 8 7 13 27 20 1 1 0 -6 -3 -14z m27 -109
c-6 -7 -8 -16 -4 -19 3 -4 1 -7 -6 -7 -8 0 -11 6 -7 16 3 9 6 20 6 25 0 6 5 7
10 4 8 -5 8 -11 1 -19z m4 -46 c-3 -5 -10 -10 -16 -10 -5 0 -9 5 -9 10 0 6 7
10 16 10 8 0 12 -4 9 -10z m13 -39 c-1 -5 -14 -3 -28 5 -24 14 -24 15 -2 11
12 -3 22 0 23 6 0 8 2 8 6 0 2 -7 3 -17 1 -22z m-1 -19 c8 -5 9 -13 3 -22 -5
-9 -5 -19 2 -27 8 -11 7 -12 -8 -6 -17 6 -18 5 -5 -13 14 -18 14 -18 -4 -2
-14 13 -16 20 -7 30 7 9 8 19 2 28 -7 10 -10 11 -10 3 0 -7 -5 -13 -11 -13 -8
0 -8 5 1 15 14 17 20 18 37 7z m13 -122 c9 -16 8 -18 -5 -14 -8 4 -15 12 -15
20 0 20 7 17 20 -6z m-16 -22 c6 -4 7 -10 3 -15 -10 -9 -27 16 -26 37 1 13 1
13 6 0 3 -8 11 -18 17 -22z m44 -46 c-1 -10 1 -23 5 -29 5 -8 4 -13 -2 -13 -6
0 -11 5 -11 11 0 5 -5 7 -12 3 -7 -4 -8 -3 -4 4 4 7 4 18 0 24 -6 9 -10 5 -15
-12 -7 -25 -7 -25 -8 4 -1 21 3 27 14 22 8 -3 15 -1 15 5 0 6 5 7 10 4 6 -4
10 -14 8 -23z m-8 -53 c0 -5 4 -7 10 -4 6 3 7 -1 4 -10 -6 -14 -9 -14 -28 2
-11 10 -23 19 -25 20 -2 2 5 3 17 3 12 0 22 -5 22 -11z m-20 -18 c0 -6 -4 -12
-8 -15 -5 -3 -9 1 -9 9 0 8 4 15 9 15 4 0 8 -4 8 -9z m30 -56 c0 -2 -8 -9 -18
-14 -14 -8 -19 -6 -19 5 0 7 9 14 19 14 10 0 18 -2 18 -5z m-16 -40 c-4 -8
-11 -12 -16 -9 -6 4 -5 10 3 15 19 12 19 11 13 -6z m36 5 c0 -5 -4 -10 -10
-10 -5 0 -10 5 -10 10 0 6 5 10 10 10 6 0 10 -4 10 -10z m-1 -59 c7 -5 11 -13
7 -19 -3 -6 -2 -13 4 -17 5 -3 10 -12 10 -18 0 -8 -3 -7 -9 2 -5 7 -13 11 -19
7 -6 -3 -13 -2 -16 3 -3 5 1 12 10 15 9 4 14 9 11 12 -3 3 -15 1 -26 -6 -17
-8 -21 -8 -19 2 3 13 18 28 28 28 3 0 11 -4 19 -9z m-29 -77 c0 -8 -4 -12 -10
-9 -5 3 -10 10 -10 16 0 5 5 9 10 9 6 0 10 -7 10 -16z m27 1 c0 -8 -4 -15 -9
-15 -4 0 -8 7 -8 15 0 8 4 15 8 15 5 0 9 -7 9 -15z m18 -155 c-3 -6 -2 -10 4
-10 5 0 11 6 14 13 3 6 4 2 4 -10 -1 -25 -12 -30 -23 -12 -3 6 -17 8 -30 5
-19 -5 -22 -3 -17 11 11 29 36 44 46 27 4 -8 5 -19 2 -24z m19 -57 c3 -7 3
-13 1 -13 -7 0 -45 39 -45 45 0 9 40 -19 44 -32z m-30 -36 c4 4 7 4 6 -2 -4
-19 0 -30 8 -19 5 9 11 8 20 -2 11 -12 9 -14 -8 -14 -12 0 -31 -5 -43 -11 -20
-9 -20 -9 -4 4 20 17 23 28 4 21 -8 -3 -14 1 -14 8 0 7 -3 27 -6 43 l-7 30 18
-33 c10 -18 21 -29 26 -25z m6 23 c0 -5 -2 -10 -4 -10 -3 0 -8 5 -11 10 -3 6
-1 10 4 10 6 0 11 -4 11 -10z m19 -106 c-11 -5 -16 -13 -12 -18 4 -4 1 -4 -8
-1 -8 3 -16 15 -16 27 -2 16 1 18 10 9 16 -16 27 -13 20 6 -6 15 -5 16 9 3 15
-14 14 -16 -3 -26z m-54 6 c3 -5 1 -10 -4 -10 -6 0 -11 5 -11 10 0 6 2 10 4
10 3 0 8 -4 11 -10z"/>
<path d="M2555 890 c-3 -5 -2 -10 4 -10 5 0 13 5 16 10 3 6 2 10 -4 10 -5 0
-13 -4 -16 -10z"/>
<path d="M7746 1868 c-21 -33 -43 -97 -66 -197 -11 -47 -24 -104 -30 -126 -26
-111 -55 -280 -65 -375 -4 -30 -8 -61 -10 -67 -3 -7 1 -13 8 -13 8 0 7 -4 -3
-10 -8 -5 -11 -12 -7 -16 9 -9 38 16 32 26 -8 12 11 21 28 14 9 -3 13 -12 11
-19 -3 -7 -1 -16 4 -19 12 -7 36 176 27 205 -5 15 -4 19 4 15 6 -4 11 -2 11 3
0 6 -4 11 -10 11 -5 0 -10 5 -10 10 0 6 6 10 14 10 8 0 13 6 13 13 -2 21 23
157 55 297 37 162 40 175 42 220 1 43 -25 53 -48 18z m17 -18 c3 -11 1 -18 -4
-14 -5 3 -9 12 -9 20 0 20 7 17 13 -6z m-4 -48 c7 -14 6 -18 -8 -18 -9 0 -17
8 -17 18 0 10 4 18 8 18 4 0 12 -8 17 -18z m-15 -52 c-22 -9 -29 -6 -20 9 4 6
14 7 23 4 15 -6 14 -7 -3 -13z m4 -27 c-19 -5 -25 -23 -8 -23 6 0 10 -9 10
-20 0 -11 -4 -20 -10 -20 -5 0 -7 6 -4 14 4 10 0 14 -13 12 -10 -2 -12 -1 -5
1 11 4 11 8 -2 21 -13 16 -12 17 17 18 18 1 24 -1 15 -3z m-48 -88 c-7 -8 -8
-15 -3 -15 5 0 9 -10 10 -21 2 -21 1 -21 -12 -3 -18 24 -19 41 -2 47 20 8 20
8 7 -8z m-10 -44 c0 -6 -4 -13 -10 -16 -5 -3 -10 1 -10 9 0 9 5 16 10 16 6 0
10 -4 10 -9z m25 -39 c-3 -3 -11 0 -18 7 -9 10 -8 11 6 5 10 -3 15 -9 12 -12z
m-48 -24 c-3 -8 -6 -5 -6 6 -1 11 2 17 5 13 3 -3 4 -12 1 -19z m38 -8 c3 -5 2
-10 -4 -10 -5 0 -13 5 -16 10 -3 6 -2 10 4 10 5 0 13 -4 16 -10z m-42 -25 c-3
-9 -8 -14 -10 -11 -3 3 -2 9 2 15 9 16 15 13 8 -4z m37 -20 c-5 -6 -8 -14 -5
-17 3 -2 -2 -5 -10 -5 -11 0 -12 4 -4 13 6 7 8 18 4 23 -3 7 0 8 10 5 11 -5
13 -10 5 -19z m-13 -65 c-2 -23 -10 -17 -12 10 -1 10 2 17 6 14 4 -2 7 -13 6
-24z m-17 -30 c11 -6 17 -17 14 -25 -4 -8 -11 -12 -16 -9 -6 4 -5 10 3 16 10
7 6 8 -13 5 -19 -3 -25 0 -21 10 6 16 9 16 33 3z m-39 -53 c-10 -9 -11 -8 -5
6 3 10 9 15 12 12 3 -3 0 -11 -7 -18z m29 -17 c-6 -11 -17 -17 -24 -14 -12 5
-12 9 2 23 21 22 35 16 22 -9z m-39 -63 c-8 -8 -11 -7 -11 4 0 20 13 34 18 19
3 -7 -1 -17 -7 -23z m36 18 c-4 -8 -2 -17 3 -20 7 -4 7 -25 0 -45 -3 -7 -18
42 -19 63 -1 9 4 17 10 17 6 0 9 -7 6 -15z m-50 -57 c-3 -8 -6 -5 -6 6 -1 11
2 17 5 13 3 -3 4 -12 1 -19z m30 3 c-3 -12 1 -22 9 -25 8 -3 14 -13 14 -22 0
-13 -3 -14 -15 -4 -8 7 -15 9 -15 6 0 -4 -6 -1 -14 6 -11 11 -11 14 2 24 8 6
12 16 8 22 -4 7 -2 12 5 12 6 0 9 -8 6 -19z m-31 -67 c-5 -13 -3 -14 6 -7 7 6
22 7 32 3 14 -5 16 -9 7 -14 -7 -5 -15 -5 -18 -2 -4 3 -15 -1 -25 -11 -17 -15
-18 -14 -18 15 0 18 5 32 11 32 6 0 8 -7 5 -16z"/>
<path d="M7623 1077 c2 -15 0 -30 -4 -33 -5 -3 -9 3 -9 13 -1 17 -1 17 -14 1
-7 -10 -15 -15 -19 -12 -3 3 -8 -9 -12 -26 -4 -17 -4 -34 -1 -37 3 -3 1 -14
-5 -24 -8 -15 -6 -19 8 -20 16 0 16 -1 -1 -8 -19 -7 -19 -8 2 -13 12 -4 20 -3
18 1 -2 3 2 14 9 24 11 15 14 15 25 2 7 -8 8 -15 4 -15 -5 0 -15 -9 -22 -20
-10 -17 -10 -24 3 -43 8 -13 12 -26 9 -30 -10 -10 -24 2 -24 19 0 15 -28 50
-34 43 -6 -8 -27 -241 -22 -246 3 -3 27 3 55 13 l50 17 0 69 c0 54 -3 68 -15
68 -8 0 -12 5 -9 10 4 6 10 8 15 5 4 -3 10 4 13 15 3 11 1 20 -4 20 -5 0 -9
-6 -10 -12 0 -7 -5 0 -9 16 -9 30 -6 46 10 46 4 0 6 -10 3 -22 -4 -18 -2 -20
5 -9 12 17 14 103 2 96 -5 -3 -12 -1 -15 5 -4 6 -1 9 5 8 23 -6 27 36 7 72
-18 33 -18 33 -14 7z m-15 -105 c-10 -2 -18 -8 -18 -13 0 -5 -5 -9 -12 -9 -6
0 -3 8 7 20 10 11 23 16 29 12 7 -4 5 -8 -6 -10z m-31 -155 c-8 -5 -5 -6 9 -2
13 3 26 -1 34 -10 11 -13 10 -14 -3 -10 -8 4 -18 2 -22 -4 -3 -6 -11 -11 -16
-11 -6 0 -7 5 -4 10 3 6 1 10 -5 10 -5 0 -9 14 -8 31 2 27 4 28 15 13 10 -14
10 -20 0 -27z m3 -73 c-6 -6 -7 -14 -3 -18 4 -4 -1 -4 -11 0 -14 5 -15 9 -4
16 10 7 10 11 1 15 -7 2 -13 9 -13 14 0 5 9 4 19 -3 13 -8 17 -16 11 -24z m43
-4 c3 -11 1 -20 -5 -20 -6 0 -8 -6 -5 -14 6 -14 -21 -32 -31 -21 -3 3 -1 5 5
5 6 0 13 9 16 20 3 11 1 20 -4 20 -4 0 -6 7 -3 15 8 21 21 19 27 -5z"/>
</g>
</svg>
